# xmcd CD database file
#
# Track frame offsets:
#	150
#	20631
#	66388
#	103878
#	133703
#	175948
#
# Disc length: 2710 seconds
#
# Revision: 0
# Processed by: cddbd v1.5.2PL0 Copyright (c) Steve Scherf et al.
# Submitted via: CDex 1.70beta2
#
DISCID=560a9406
DTITLE=Itaru Oki - Phantom Note
DYEAR=1975
DGENRE=Jazz
TTITLE0=A Black Iron Cat Mask
TTITLE1=The Cats of Rue Saint Denis
TTITLE2=Escargot
TTITLE3=Smily Nanri-san
TTITLE4=Kodai-tenmondai - Accient Observatory
TTITLE5=Caesar and Capone
EXTD=YEAR: 1975
EXTT0=
EXTT1=
EXTT2=
EXTT3=
EXTT4=
EXTT5=
PLAYORDER=
